<?xml version="1.0" encoding="UTF-8"?>
<svg width="239px" height="33px" viewBox="0 0 239 33" version="1.1" xmlns="http://www.w3.org/2000/svg" xmlns:xlink="http://www.w3.org/1999/xlink">
    <!-- Generator: sketchtool 61.2 (101010) - https://sketch.com -->
    <title>A2E0E5CC-EF84-4C01-86C4-33DA945D2F55</title>
    <desc>Created with sketchtool.</desc>
    <g id="Page-1" stroke="none" stroke-width="1" fill="none" fill-rule="evenodd">
        <g id="Home" transform="translate(-764.000000, -68.000000)">
            <g id="homepage" transform="translate(-71.000000, -10.000000)">
                <g id="Nav-/-header">
                    <g id="Group" transform="translate(835.000000, 78.000000)">
                        <path d="M238.931004,13.4362346 L238.931004,9.71837974 L238.144359,9.71837974 L237.225864,12.5972547 L237.199314,12.5972547 L236.290764,9.71837974 L235.467669,9.71837974 L235.467669,13.4362346 L235.934859,13.4362346 L235.934859,10.2333147 L235.961364,10.2333147 L236.970714,13.4362346 L237.416709,13.4362346 L238.431324,10.2333147 L238.457829,10.2333147 L238.457829,13.4362346 L238.931004,13.4362346 Z M234.018309,13.4362346 L234.018309,10.1431797 L235.016994,10.1431797 L235.016994,9.71837974 L232.547079,9.71837974 L232.547079,10.1431797 L233.534514,10.1431797 L233.534514,13.4362346 L234.018309,13.4362346 Z M37.834199,18.2839945 L37.836854,18.1925545 C39.7501189,17.5351495 40.9356889,16.3846796 40.9356889,14.3308796 L40.9356889,14.0154296 C40.9356889,11.6575197 39.018464,9.71774974 35.1084141,9.71774974 L29.6999992,9.71774974 L29.6999992,28.1213993 L35.5013991,28.1213993 C39.301424,28.1213993 41.9098939,26.2114193 41.9098939,23.1529944 L41.9098939,22.9687644 C41.9098939,20.5829545 40.5049489,18.8353795 37.834199,18.2839945 L37.834199,18.2839945 Z M32.0665492,11.7946797 L34.7710941,11.7946797 C37.348424,11.7946797 38.663234,12.7708647 38.663234,14.5191146 L38.663234,14.7040196 C38.663234,16.8141146 36.838799,17.4907345 34.4417391,17.4907345 L32.0665492,17.4907345 L32.0665492,11.7946797 Z M39.485654,22.9415844 C39.485654,25.2186743 37.691684,26.0702543 35.0746191,26.0702543 L32.0665492,26.0702543 L32.0665492,19.4358145 L35.1170541,19.4358145 C37.693709,19.4358145 39.485654,20.2920295 39.485654,22.6519644 L39.485654,22.9415844 Z M49.6438187,14.1871046 L50.3270537,14.1871046 L50.3270537,16.3429196 L49.7750387,16.3429196 C47.5661687,16.3429196 46.1201388,17.4469945 46.1201388,20.3662795 L46.1201388,28.1213993 L43.9126188,28.1213993 L43.9126188,14.1871046 L46.1201388,14.1871046 L46.1201388,16.6848746 L46.2255288,16.6848746 C46.6198188,15.4237046 47.6457287,14.1871046 49.6438187,14.1871046 L49.6438187,14.1871046 Z M52.2920236,14.1871046 L54.5008486,14.1871046 L54.5008486,28.1213993 L52.2920236,28.1213993 L52.2920236,14.1871046 Z M54.7433985,11.0610447 C54.7433985,12.1373097 54.2536636,12.6416247 53.3960986,12.6416247 C52.5385336,12.6416247 52.0481236,12.1373097 52.0481236,11.0610447 C52.0481236,9.98482474 52.5385336,9.44999975 53.3960986,9.44999975 C54.2536636,9.44999975 54.7433985,9.98482474 54.7433985,11.0610447 L54.7433985,11.0610447 Z M66.7511982,24.2828994 C66.7511982,26.9649443 64.7524333,28.3837942 61.8344984,28.3837942 C58.8900134,28.3837942 56.9443035,27.1219943 56.7865785,24.2828994 L58.9954034,24.2828994 C59.0736134,25.9920893 60.3354134,26.5441043 61.8344984,26.5441043 C63.3328633,26.5441043 64.5423283,25.8866993 64.5423283,24.4399944 C64.5423283,21.0488844 56.9443035,23.3895594 56.9443035,17.8950145 C56.9443035,15.6066296 58.6269434,13.9239896 61.7026034,13.9239896 C64.5164983,13.9239896 66.3826932,15.3176846 66.5934282,18.0255595 L64.3846033,18.0255595 C64.2533833,16.3952546 63.1228033,15.7643546 61.7026034,15.7643546 C60.0988034,15.7643546 59.1001184,16.5006446 59.1001184,17.8950145 C59.1001184,21.1807344 66.7511982,19.1561395 66.7511982,24.2828994 L66.7511982,24.2828994 Z M71.8461431,14.1871046 L74.843593,14.1871046 L74.843593,16.1328146 L71.8461431,16.1328146 L71.8461431,23.8355994 C71.8461431,25.8601943 72.3723281,26.2803593 73.713013,26.2803593 C74.080843,26.2803593 74.501638,26.2279793 74.843593,26.2014743 L74.843593,28.0955243 C74.422798,28.1737343 73.870738,28.2260693 73.4764481,28.2260693 C70.7420681,28.2260693 69.6379932,27.1484993 69.6379932,24.1768794 L69.6379932,16.1328146 L67.2979032,16.1328146 L67.2979032,14.1871046 L69.6379932,14.1871046 L69.6379932,9.71774974 L71.8461431,9.71774974 L71.8461431,14.1871046 Z M81.3673778,13.9239896 C77.9225829,13.9239896 76.082893,16.2905396 76.082893,20.1289945 L76.082893,22.1794644 C76.082893,26.0179193 77.9225829,28.3837942 81.3673778,28.3837942 C84.8108678,28.3837942 86.6512327,26.0179193 86.6512327,22.1794644 L86.6512327,20.1289945 C86.6512327,16.2905396 84.8108678,13.9239896 81.3673778,13.9239896 L81.3673778,13.9239896 Z M84.4172078,22.0482444 C84.4172078,25.3605143 83.2601228,26.4387593 81.3673778,26.4387593 C79.4740029,26.4387593 78.3182229,25.3605143 78.3182229,22.0482444 L78.3182229,20.2602145 C78.3182229,16.9473146 79.4740029,15.8697446 81.3673778,15.8697446 C83.2601228,15.8697446 84.4172078,16.9473146 84.4172078,20.2602145 L84.4172078,22.0482444 Z M88.9853376,9.71774974 L91.1941626,9.71774974 L91.1941626,28.1207243 L88.9853376,28.1207243 L88.9853376,9.71774974 Z M112.495857,9.71774974 L116.244222,9.71774974 L116.244222,28.1213993 L113.904132,28.1213993 L113.904132,12.2685297 L113.772957,12.2685297 L109.066317,25.0748543 L106.200087,25.0748543 L101.547807,12.2685297 L101.416587,12.2685297 L101.416587,28.1213993 L99.1030474,28.1213993 L99.1030474,9.71774974 L103.034247,9.71774974 L107.673297,22.5008544 L107.805147,22.5008544 L112.495857,9.71774974 Z M126.983517,14.1871046 L129.218217,14.1871046 L123.040347,32.5907541 L120.753312,32.5907541 L122.304732,28.2260693 L117.781692,14.1871046 L120.122412,14.1871046 L123.461187,25.0456943 L123.566577,25.0456943 L126.983517,14.1871046 Z M135.151511,13.9239896 C131.708067,13.9239896 129.867702,16.3952546 129.867702,20.1289945 L129.867702,22.1794644 C129.867702,26.0179193 131.708067,28.3837942 135.151511,28.3837942 C137.912396,28.3837942 139.542026,26.8589243 140.094086,24.2563944 L137.833556,24.2563944 C137.439221,25.8601943 136.545206,26.4387593 135.151511,26.4387593 C133.259486,26.4387593 132.102357,25.3605143 132.102357,22.0482444 L132.102357,21.8640144 L140.172926,21.8640144 L140.172926,20.1289945 C140.172926,16.3952546 138.596306,13.9239896 135.151511,13.9239896 L135.151511,13.9239896 Z M135.151511,15.8697446 C136.940846,15.8697446 137.909741,16.9227896 137.936246,20.1289945 L132.105687,20.1289945 C132.136151,16.9227896 133.285316,15.8697446 135.151511,15.8697446 L135.151511,15.8697446 Z M148.361441,14.1871046 L149.044046,14.1871046 L149.044046,16.3429196 L148.492661,16.3429196 C146.284511,16.3429196 144.838436,17.4469945 144.838436,20.3662795 L144.838436,28.1213993 L142.630286,28.1213993 L142.630286,14.1871046 L144.838436,14.1871046 L144.838436,16.6848746 L144.943826,16.6848746 C145.337486,15.4237046 146.363351,14.1871046 148.361441,14.1871046 L148.361441,14.1871046 Z M160.191626,24.2828994 C160.191626,26.9649443 158.194211,28.3837942 155.274926,28.3837942 C152.330486,28.3837942 150.386081,27.1219943 150.227006,24.2828994 L152.435831,24.2828994 C152.515391,25.9920893 153.777191,26.5441043 155.274926,26.5441043 C156.773336,26.5441043 157.982801,25.8866993 157.982801,24.4399944 C157.982801,21.0488844 150.386081,23.3895594 150.386081,17.8950145 C150.386081,15.6066296 152.068676,13.9239896 155.143706,13.9239896 C157.956296,13.9239896 159.824471,15.3176846 160.033901,18.0255595 L157.825076,18.0255595 C157.694486,16.3952546 156.563906,15.7643546 155.143706,15.7643546 C153.539951,15.7643546 152.541221,16.5006446 152.541221,17.8950145 C152.541221,21.1807344 160.191626,19.1561395 160.191626,24.2828994 L160.191626,24.2828994 Z M177.743695,23.2570344 C177.743695,26.5441043 175.483165,28.3837942 172.01182,28.3837942 C168.751931,28.3837942 166.070561,26.8065443 165.729281,23.2835394 L168.173366,23.2835394 C168.462986,25.3605143 169.935565,26.3333693 171.985315,26.3333693 C174.326035,26.3333693 175.377775,24.9396743 175.377775,23.3895594 C175.377775,18.1567795 166.018226,21.1807344 166.018226,14.3189546 C166.018226,11.3745147 168.358271,9.45530975 171.618205,9.45530975 C174.772075,9.45530975 177.401695,11.0060547 177.560095,14.6344046 L175.11403,14.6344046 C174.9046,12.3997497 173.485075,11.5057347 171.59233,11.5057347 C169.357001,11.5057347 168.384146,12.8205897 168.384146,14.2129346 C168.384146,18.8406895 177.743695,16.1063096 177.743695,23.2570344 L177.743695,23.2570344 Z M187.72222,15.8697446 L187.614175,15.8697446 C187.017745,14.6397146 185.88316,13.9239896 184.43578,13.9239896 C180.990985,13.9239896 179.413735,16.2905396 179.413735,20.1289945 L179.413735,22.1794644 C179.413735,26.0179193 180.990985,28.3837942 184.43578,28.3837942 C185.88316,28.3837942 187.01842,27.6680693 187.614175,26.4387593 L187.72222,26.4387593 L187.72222,28.1213993 L187.72222,32.5907541 L189.931045,32.5907541 L189.931045,14.1871046 L187.72222,14.1871046 L187.72222,15.8697446 Z M184.69822,26.4387593 C182.806195,26.4387593 181.64839,25.3605143 181.64839,22.0482444 L181.64839,20.2602145 C181.64839,16.9473146 182.806195,15.8697446 184.69822,15.8697446 C186.590965,15.8697446 187.748725,16.9473146 187.748725,20.2602145 L187.748725,22.0482444 C187.748725,25.3605143 186.590965,26.4387593 184.69822,26.4387593 L184.69822,26.4387593 Z M200.07328,14.1871046 L202.282105,14.1871046 L202.282105,28.1213993 L200.07328,28.1213993 L200.07328,26.3333693 L199.968565,26.3333693 C199.44238,27.4633193 198.311755,28.3837942 196.550905,28.3837942 C193.94842,28.3837942 192.34399,26.9112593 192.34399,23.6248644 L192.34399,14.1871046 L194.57932,14.1871046 L194.57932,23.3100444 C194.57932,25.5447443 195.49984,26.5175993 197.155975,26.5175993 C198.7591,26.5175993 200.07328,25.4393543 200.07328,22.7314794 L200.07328,14.1871046 Z M205.118545,14.1871046 L207.32602,14.1871046 L207.32602,28.1213993 L205.118545,28.1213993 L205.118545,14.1871046 Z M215.782329,13.9239896 C214.313079,13.9239896 213.193074,14.6397146 212.601909,15.8697446 L212.496564,15.8697446 L212.496564,14.1871046 L212.496564,9.71774974 L210.288369,9.71774974 L210.288369,28.1213993 L212.496564,28.1213993 L212.496564,26.4387593 L212.601909,26.4387593 C213.193074,27.6680693 214.313079,28.3837942 215.782329,28.3837942 C219.226449,28.3837942 220.803699,26.0179193 220.803699,22.1794644 L220.803699,20.1289945 C220.803699,16.2905396 219.226449,13.9239896 215.782329,13.9239896 L215.782329,13.9239896 Z M218.569674,22.0482444 C218.569674,25.3605143 217.412589,26.4387593 215.520519,26.4387593 C213.626469,26.4387593 212.470689,25.3605143 212.470689,22.0482444 L212.470689,20.2602145 C212.470689,16.9473146 213.626469,15.8697446 215.520519,15.8697446 C217.412589,15.8697446 218.569674,16.9473146 218.569674,20.2602145 L218.569674,22.0482444 Z M228.466029,13.9239896 C226.995474,13.9239896 225.875469,14.6397146 225.284349,15.8697446 L225.178959,15.8697446 L225.178959,14.1871046 L225.178959,9.71774974 L222.971484,9.71774974 L222.971484,28.1213993 L225.178959,28.1213993 L225.178959,26.4387593 L225.284349,26.4387593 C225.875469,27.6680693 226.995474,28.3837942 228.466029,28.3837942 C231.909519,28.3837942 233.486814,26.0179193 233.486814,22.1794644 L233.486814,20.1289945 C233.486814,16.2905396 231.909519,13.9239896 228.466029,13.9239896 L228.466029,13.9239896 Z M231.252789,22.0482444 C231.252789,25.3605143 230.096334,26.4387593 228.202284,26.4387593 C226.310214,26.4387593 225.153129,25.3605143 225.153129,22.0482444 L225.153129,20.2602145 C225.153129,16.9473146 226.310214,15.8697446 228.202284,15.8697446 C230.096334,15.8697446 231.252789,16.9473146 231.252789,20.2602145 L231.252789,22.0482444 Z M207.569245,11.0610447 C207.569245,12.1373097 207.078835,12.6416247 206.221945,12.6416247 C205.365055,12.6416247 204.874645,12.1373097 204.874645,11.0610447 C204.874645,9.98482474 205.365055,9.44999975 206.221945,9.44999975 C207.078835,9.44999975 207.569245,9.98482474 207.569245,11.0610447 L207.569245,11.0610447 Z" id="Fill-3" fill="#595454"></path>
                        <path d="M9.42065975,32.1379191 C9.17478876,32.6461941 8.65124527,32.9736141 8.08727379,32.9736141 C7.86194979,32.9736141 7.6452388,32.9238891 7.4417848,32.8244841 C2.79414893,30.5712442 0.338782491,26.6015693 0.338782491,21.3422394 L0.338782491,15.4023296 C0.338782491,14.5851746 1.00349097,13.9211546 1.81995745,13.9211546 C2.63642393,13.9211546 3.30112791,14.5851746 3.30112791,15.4023296 L3.30112791,21.3422394 C3.30112791,25.4444843 5.12890186,28.4107942 8.73474727,30.1597192 C9.46903475,30.5162542 9.77719924,31.4036092 9.42065975,32.1379191 L9.42065975,32.1379191 Z M5.03810987,18.3712945 C5.03810987,19.2109495 5.71872135,19.8908995 6.55771933,19.8908995 C7.3973833,19.8908995 8.07799479,19.2109495 8.07799479,18.3712945 L8.07799479,6.24950983 C8.07799479,5.40922486 7.3973833,4.72927487 6.55771933,4.72927487 C5.71872135,4.72927487 5.03810987,5.40922486 5.03810987,6.24950983 L5.03810987,18.3712945 Z M9.74074924,18.0187195 C9.74074924,18.8576995 10.4213607,19.5383245 11.2603587,19.5383245 C12.1000227,19.5383245 12.7806342,18.8576995 12.7806342,18.0187195 L12.7806342,1.72120495 C12.7806342,0.881504977 12.1000227,0.202229995 11.2603587,0.202229995 C10.4213607,0.202229995 9.74074924,0.881504977 9.74074924,1.72120495 L9.74074924,18.0187195 Z M14.4433886,19.1400295 C14.4433886,19.9796845 15.1240001,20.6596345 15.9629981,20.6596345 C16.8026621,20.6596345 17.4832735,19.9796845 17.4832735,19.1400295 L17.4832735,4.50989988 C17.4832735,3.6702449 16.8026621,2.98961992 15.9629981,2.98961992 C15.1240001,2.98961992 14.4433886,3.6702449 14.4433886,4.50989988 L14.4433886,19.1400295 Z M19.146028,21.0765144 C19.146028,21.8909694 19.806097,22.5503994 20.619913,22.5503994 C21.4343904,22.5503994 22.0944594,21.8909694 22.0944594,21.0765144 L22.0944594,11.1887547 C22.0944594,10.3742997 21.4343904,9.71419474 20.619913,9.71419474 C19.806097,9.71419474 19.146028,10.3742997 19.146028,11.1887547 L19.146028,21.0765144 Z" id="Fill-1" fill="#BE2BBB"></path>
                    </g>
                </g>
            </g>
        </g>
    </g>
</svg>